<svg width="45" height="34" viewBox="213 0 45 34" fill="none" xmlns="http://www.w3.org/2000/svg">
<path d="M221.641 31.048C226.026 31.048 229.581 27.4217 229.581 22.9483C229.581 18.475 226.026 14.8486 221.641 14.8486C217.256 14.8486 213.701 18.475 213.701 22.9483C213.701 27.4217 217.256 31.048 221.641 31.048Z" fill="#EAA04E"/>
<path d="M242.555 8.26858C241.035 5.74251 238.906 3.65607 236.371 2.20849C233.835 0.76092 230.978 0.00055224 228.073 0H218.398C221.928 1.68827 225.045 4.15831 227.521 7.23031C228.348 8.25466 229.1 9.33963 229.771 10.4765L238.68 25.5751C240.188 28.1372 242.321 30.2574 244.871 31.7293C247.42 33.2013 250.3 33.975 253.23 33.975H258L242.555 8.26858Z" fill="#EAA04E"/>
</svg>
