<svg width="200" height="26" viewBox="0 0 200 26" fill="none" xmlns="http://www.w3.org/2000/svg">
<g clip-path="url(#clip0_235_29)">
<path d="M5.61442 5.57706C8.91923 5.57706 11.0793 7.50989 11.0793 10.6536V19.4665H8.96238V17.1453C8.51347 17.9683 7.84649 18.6517 7.03467 19.1206C6.22286 19.5894 5.29758 19.8255 4.36038 19.803C1.86092 19.803 -0.0201416 18.1664 -0.0201416 15.9085C-0.0201416 13.5443 1.78038 12.1694 5.00466 11.7178L8.79269 11.18V10.6421C8.79269 8.73517 7.47535 7.65946 5.43322 7.65946C3.66145 7.65946 2.02198 8.49357 0.97503 9.27303V6.97203C2.35119 6.06205 3.96461 5.57693 5.61442 5.57706V5.57706ZM8.86748 13.7974V12.9345L5.40158 13.4062C3.35944 13.6766 2.23771 14.4819 2.23771 15.7705C2.23771 17.059 3.28756 17.8673 4.73719 17.8673C5.81864 17.8557 6.8534 17.4251 7.62376 16.666C8.39411 15.9069 8.83998 14.8785 8.86748 13.7974V13.7974Z" fill="#003133"/>
<path d="M20.3926 19.7886C16.7915 19.7886 13.944 16.7801 13.944 12.6958C13.944 8.61151 16.7915 5.57707 20.3926 5.57707C22.3254 5.57707 24.2353 6.65278 25.0406 8.04776V0.526367H27.3243V19.4665H25.1212V17.2374C24.3417 18.687 22.3542 19.7886 20.3926 19.7886ZM25.1758 12.6958C25.1758 9.55205 23.0531 7.67385 20.7406 7.67385C18.3246 7.67385 16.2537 9.74188 16.2537 12.6958C16.2537 15.6497 18.3246 17.6947 20.7694 17.6947C23.0244 17.6947 25.1758 15.8136 25.1758 12.6958V12.6958Z" fill="#003133"/>
<path d="M36.0308 5.57706C39.3327 5.57706 41.4956 7.50989 41.4956 10.6536V19.4665H39.3988V17.1453C38.9499 17.9683 38.283 18.6517 37.4712 19.1206C36.6594 19.5894 35.734 19.8255 34.7968 19.803C32.2974 19.803 30.4163 18.1664 30.4163 15.9085C30.4163 13.5443 32.2169 12.1694 35.4412 11.7178L39.2292 11.18V10.6421C39.2292 8.73517 37.9119 7.65946 35.8697 7.65946C34.0979 7.65946 32.4585 8.49357 31.4115 9.27303V6.97203C32.7822 6.06628 34.3879 5.58138 36.0308 5.57706V5.57706ZM39.2809 13.7974V12.9345L35.8151 13.4062C33.7729 13.6766 32.6512 14.4819 32.6512 15.7705C32.6512 17.059 33.6981 17.8673 35.1478 17.8673C36.2297 17.8564 37.2652 17.4261 38.0362 16.6669C38.8072 15.9078 39.2534 14.879 39.2809 13.7974V13.7974Z" fill="#003133"/>
<path d="M47.6911 5.8992V8.18294C48.4706 6.62401 49.9461 5.57706 52.2586 5.57706C54.4618 5.57706 56.153 6.72755 56.9584 8.5856C58.1405 6.59811 59.6448 5.57706 61.9573 5.57706C65.0205 5.57706 67.1345 7.7256 67.1345 11.1915V19.4665H64.8537V11.3008C64.8537 8.96239 63.4156 7.67384 61.4942 7.67384C58.6726 7.67384 57.4358 10.2797 57.4358 12.4829V19.4665H55.1521V11.3008C55.1521 8.96239 53.714 7.67384 51.7955 7.67384C48.9739 7.67384 47.7371 10.2797 47.7371 12.4829V19.4665H45.4534V5.8992H47.6911Z" fill="#003133"/>
<path d="M79.1803 6.83972V9.17811C77.9694 8.20881 76.6808 7.64506 75.1765 7.64506C73.4019 7.64506 72.4614 8.42454 72.4614 9.47149C72.4614 10.5731 73.5371 11.0851 75.444 11.6747C77.6472 12.3218 79.8763 13.0725 79.8763 15.7014C79.8763 18.2009 77.9147 19.7857 74.9062 19.7857C73.1924 19.8105 71.5193 19.2629 70.1517 18.2297V15.6784C71.4691 16.9699 72.9187 17.7465 74.7537 17.7465C76.6348 17.7465 77.6559 16.8836 77.6559 15.7331C77.6559 14.4963 76.5054 14.0677 74.492 13.4494C72.3434 12.7763 70.2466 11.971 70.2466 9.58079C70.2466 7.29705 72.1824 5.57706 75.1104 5.57706C76.6262 5.57706 78.1851 6.06025 79.1803 6.83972Z" fill="#003133"/>
<path d="M84.6336 19.4664H83.5579V0.66153H84.6595V9.12345C85.5224 6.97489 87.8033 5.71222 89.9806 5.71222C93.5529 5.71222 96.4291 8.80131 96.4291 12.7504C96.4291 16.6995 93.5529 19.7886 89.9806 19.7886C88.8666 19.7913 87.7742 19.4804 86.8286 18.8914C85.883 18.3024 85.1223 17.459 84.6336 16.4579V19.4664ZM95.2758 12.7504C95.2758 9.4197 92.9374 6.75918 89.8483 6.75918C87.3488 6.75918 84.5819 8.61147 84.5819 12.7504C84.5819 16.9411 87.4581 18.7158 89.8224 18.7158C92.8827 18.7158 95.2729 16.0811 95.2729 12.7504H95.2758Z" fill="#003133"/>
<path d="M100.887 9.01704C101.615 6.67864 103.387 5.71223 105.202 5.71223C105.427 5.70368 105.653 5.72105 105.875 5.764V6.83971C105.678 6.8193 105.48 6.81067 105.282 6.81384C102.676 6.81384 100.905 8.8272 100.905 12.3218V19.4665H99.803V6.03437H100.876L100.887 9.01704Z" fill="#003133"/>
<path d="M110.373 1.52155C110.375 1.65604 110.35 1.78955 110.299 1.91415C110.249 2.03875 110.174 2.15191 110.078 2.24688C109.983 2.34186 109.87 2.41673 109.745 2.46704C109.62 2.51734 109.487 2.54207 109.352 2.53974C109.081 2.53974 108.822 2.43217 108.63 2.24068C108.439 2.04919 108.331 1.78948 108.331 1.51868C108.331 1.24787 108.439 0.988152 108.63 0.796665C108.822 0.605177 109.081 0.497602 109.352 0.497602C109.487 0.495655 109.621 0.520837 109.746 0.571642C109.871 0.622447 109.984 0.697844 110.08 0.793355C110.175 0.888867 110.25 1.00254 110.3 1.12763C110.351 1.25273 110.376 1.38668 110.373 1.52155V1.52155ZM108.788 6.03438H109.89V19.4665H108.788V6.03438Z" fill="#003133"/>
<path d="M119.856 19.7886C116.284 19.7886 113.408 16.6995 113.408 12.7504C113.408 8.80131 116.284 5.71222 119.856 5.71222C122.005 5.71222 124.288 6.97489 125.148 9.12345V0.66153H126.25V19.4664H125.177V16.4579C124.691 17.4555 123.934 18.2966 122.994 18.8854C122.053 19.4742 120.966 19.7872 119.856 19.7886V19.7886ZM125.229 12.7504C125.229 8.61147 122.462 6.75918 119.965 6.75918C116.902 6.75918 114.564 9.4197 114.564 12.7504C114.564 16.0811 116.928 18.7158 120.029 18.7158C122.356 18.7158 125.229 16.9699 125.229 12.7504Z" fill="#003133"/>
<path d="M136.515 6.03436H141.244V7.02667H138.207C138.687 7.46342 139.069 7.99671 139.328 8.59155C139.587 9.18639 139.718 9.82933 139.711 10.4782C139.711 13.1099 137.537 15.2326 134.634 15.2326C134.149 15.2395 133.664 15.1765 133.196 15.0457C132.497 15.2873 131.744 15.8251 131.744 16.5499C131.744 17.1942 132.319 17.758 133.142 17.758H137.226C139.481 17.758 141.336 19.0494 141.336 21.1721C141.336 23.5076 138.73 25.1758 135.008 25.1758C131.557 25.1758 129.285 23.6687 129.285 21.359C129.285 20.0158 130.415 18.8596 131.703 18.3246C131.391 18.172 131.127 17.9349 130.942 17.6401C130.757 17.3452 130.658 17.0044 130.657 16.6563C130.657 15.7935 131.407 15.1003 132.213 14.6976C131.412 14.3202 130.734 13.7235 130.259 12.9767C129.783 12.2298 129.529 11.3635 129.526 10.4782C129.526 7.81764 131.703 5.72372 134.632 5.72372C135.273 5.71219 135.911 5.81746 136.515 6.03436ZM130.418 21.2785C130.418 23.0272 132.244 24.1001 135.02 24.1001C138.054 24.1001 140.197 22.9179 140.197 21.1721C140.197 19.6678 138.854 18.7531 137.134 18.7531H132.782C131.384 19.2249 130.418 20.059 130.418 21.2929V21.2785ZM130.659 10.4523C130.659 12.4657 132.325 14.1914 134.634 14.1914C136.944 14.1914 138.583 12.4657 138.583 10.4523C138.583 8.4389 136.918 6.71315 134.634 6.71315C132.351 6.71315 130.659 8.42454 130.659 10.4667V10.4523Z" fill="#003133"/>
<path d="M155.7 11.8645C155.705 12.1885 155.678 12.5122 155.62 12.831H144.227C144.307 16.3774 146.697 18.7416 150.031 18.7416C151.722 18.7416 153.658 18.1664 154.84 17.131V18.3649C153.523 19.3859 151.587 19.803 149.896 19.803C145.705 19.803 143.07 16.688 143.07 12.6843C143.07 8.76106 145.918 5.72662 149.686 5.72662C153.201 5.71224 155.7 8.3699 155.7 11.8645ZM144.281 11.8358H154.57C154.544 8.72079 152.341 6.7592 149.625 6.7592C146.778 6.7592 144.523 8.9624 144.281 11.8358Z" fill="#003133"/>
<path d="M172.003 23.4328C175.38 23.4328 178.118 20.6951 178.118 17.3179C178.118 13.9407 175.38 11.203 172.003 11.203C168.625 11.203 165.888 13.9407 165.888 17.3179C165.888 20.6951 168.625 23.4328 172.003 23.4328Z" fill="#73847B"/>
<path d="M188.107 6.24433C186.939 4.33673 185.3 2.76087 183.349 1.66755C181.397 0.57424 179.198 7.50775e-05 176.961 0H169.509C173.145 1.71212 176.192 4.46363 178.264 7.90681L185.121 19.3226C186.286 21.2556 187.931 22.8542 189.897 23.963C191.863 25.0718 194.082 25.6531 196.339 25.6504H200.011L188.107 6.24433Z" fill="#73847B"/>
</g>
<defs>
<clipPath id="clip0_235_29">
<rect width="200" height="25.6619" fill="white"/>
</clipPath>
</defs>
</svg>
