<svg width="258" height="34" viewBox="0 0 258 34" fill="none" xmlns="http://www.w3.org/2000/svg">
<path d="M7.29014 7.38667C11.5821 7.38667 14.378 9.95105 14.378 14.1166V25.7877H11.6556V22.6604C11.0748 23.7506 10.2108 24.6566 9.1584 25.2789C8.10602 25.9011 6.90595 26.2157 5.68987 26.188C2.44027 26.188 0 24.0176 0 21.0217C0 17.8944 2.33603 16.0743 6.52373 15.4739L11.4288 14.7608V14.0478C11.4288 11.546 9.71815 10.0949 7.06328 10.0949C4.96141 10.1789 2.9369 10.9263 1.26918 12.234V9.16923C3.06207 7.98713 5.15545 7.36736 7.29014 7.38667V7.38667ZM11.5146 18.2822V17.1376L7.01424 17.763C4.35937 18.1196 2.89399 19.1891 2.89399 20.8903C2.89399 22.5916 4.25514 23.6674 6.14358 23.6674C7.54847 23.6549 8.89372 23.0864 9.89571 22.0818C10.8977 21.0772 11.4781 19.7149 11.5146 18.2822V18.2822Z" fill="#E2E1DC"/>
<path d="M26.4873 26.2006C21.8091 26.2006 18.1119 22.2102 18.1119 16.8187C18.1119 11.4272 21.7907 7.38675 26.4873 7.38675C29.0012 7.38675 31.4782 8.8128 32.5205 10.6579V0.694336H35.4881V25.7878H32.6309V22.8356C31.6131 24.7558 29.0318 26.2006 26.4873 26.2006ZM32.6984 16.8187C32.6984 12.6531 29.9393 10.1638 26.941 10.1638C23.8018 10.1638 21.1102 12.9033 21.1102 16.8187C21.1102 20.7341 23.8018 23.4423 26.9717 23.4423C29.9086 23.4423 32.6984 20.9467 32.6984 16.8187Z" fill="#E2E1DC"/>
<path d="M46.7942 7.38701C51.0862 7.38701 53.882 9.95139 53.882 14.117V25.788H51.172V22.6607C50.5911 23.751 49.7271 24.6569 48.6748 25.2792C47.6224 25.9015 46.4223 26.216 45.2062 26.1883C41.9566 26.1883 39.5164 24.018 39.5164 21.022C39.5164 17.8947 41.8524 16.0747 46.0401 15.4742L50.9451 14.7612V14.0482C50.9451 11.5463 49.2345 10.0953 46.5796 10.0953C44.4778 10.1792 42.4533 10.9266 40.7855 12.2343V9.16958C42.5754 7.99083 44.6639 7.37125 46.7942 7.38701V7.38701ZM51.0187 18.2825V17.1379L46.5183 17.7634C43.8635 18.1199 42.3981 19.1894 42.3981 20.8907C42.3981 22.5919 43.7592 23.6677 45.6477 23.6677C47.0526 23.6552 48.3978 23.0868 49.3998 22.0821C50.4018 21.0775 50.9822 19.7152 51.0187 18.2825Z" fill="#E2E1DC"/>
<path d="M61.9448 7.81186V10.8391C62.9564 8.77507 64.8755 7.38655 67.8737 7.38655C69.1716 7.33618 70.4536 7.69052 71.5491 8.40233C72.6445 9.11414 73.5012 10.1496 74.0051 11.3707C75.544 8.73754 77.4938 7.38655 80.4981 7.38655C84.4774 7.38655 87.2426 10.2324 87.2426 14.8233V25.7876H84.2812V14.9421C84.2812 11.8461 82.3927 10.1386 79.9157 10.1386C76.2369 10.1386 74.6489 13.5911 74.6489 16.512V25.7626H71.6813V14.9421C71.6813 11.8461 69.799 10.1386 67.3158 10.1386C63.637 10.1386 62.049 13.5911 62.049 16.512V25.7626H59.0814V7.81186H61.9448Z" fill="#E2E1DC"/>
<path d="M102.841 9.05659V12.1839C101.396 10.9027 99.5551 10.1828 97.6414 10.1511C95.3421 10.1511 94.1158 11.1832 94.1158 12.5717C94.1158 13.9602 95.5138 14.7108 97.9908 15.4926C100.854 16.3432 103.748 17.369 103.748 20.834C103.748 24.1427 101.204 26.2442 97.2919 26.2442C95.0661 26.2755 92.8936 25.5492 91.1176 24.1802V20.7965C92.8283 22.504 94.7106 23.536 97.0834 23.536C99.4562 23.536 100.854 22.3977 100.854 20.8653C100.854 19.2328 99.352 18.6574 96.7339 17.8443C93.9442 16.9499 91.2157 15.8866 91.2157 12.7155C91.2157 9.68831 93.7296 7.41163 97.531 7.41163C99.4271 7.3715 101.287 7.94758 102.841 9.05659Z" fill="#E2E1DC"/>
<path d="M109.929 25.7875H108.531V0.869141H109.965V12.0836C111.081 9.23779 114.043 7.56156 116.875 7.56156C121.517 7.56156 125.245 11.6583 125.245 16.8934C125.245 22.1285 121.517 26.2003 116.875 26.2003C115.432 26.2067 114.015 25.7998 112.787 25.0258C111.559 24.2518 110.569 23.1418 109.929 21.822V25.7875ZM123.749 16.8934C123.749 12.4777 120.714 8.95008 116.698 8.95008C113.454 8.95008 109.861 11.4081 109.861 16.8934C109.861 22.3787 113.595 24.793 116.661 24.793C120.64 24.793 123.749 21.3029 123.749 16.8934Z" fill="#E2E1DC"/>
<path d="M131.039 11.9399C131.352 10.6688 132.079 9.54372 133.1 8.74847C134.121 7.95322 135.377 7.53482 136.661 7.56165C136.953 7.54928 137.246 7.5745 137.532 7.6367V9.0565C137.277 9.03178 137.021 9.02134 136.765 9.02522C133.381 9.02522 131.075 11.6959 131.075 16.3181V25.7875H129.653V7.99322H131.045L131.039 11.9399Z" fill="#E2E1DC"/>
<path d="M143.363 2.00748C143.366 2.18665 143.334 2.36466 143.268 2.53087C143.202 2.69707 143.105 2.84805 142.98 2.97477C142.856 3.10148 142.708 3.20133 142.545 3.26833C142.382 3.33534 142.208 3.36812 142.032 3.36473C141.696 3.34138 141.38 3.18858 141.15 2.9372C140.92 2.68582 140.792 2.35463 140.792 2.0106C140.792 1.66658 140.92 1.33539 141.15 1.08401C141.38 0.832636 141.696 0.679828 142.032 0.656488C142.207 0.653114 142.381 0.685706 142.544 0.752326C142.706 0.818946 142.854 0.91823 142.978 1.04427C143.102 1.17032 143.2 1.32055 143.266 1.48602C143.332 1.65149 143.365 1.82883 143.363 2.00748V2.00748ZM141.303 7.99313H142.731V25.7875H141.303V7.99313Z" fill="#E2E1DC"/>
<path d="M155.68 26.2003C151.039 26.2003 147.305 22.1035 147.305 16.8747C147.305 11.6458 151.039 7.5428 155.68 7.5428C158.47 7.5428 161.438 9.21903 162.554 12.0649V0.869141H163.988V25.7875H162.597V21.822C161.959 23.1375 160.974 24.2448 159.751 25.0185C158.529 25.7922 157.119 26.2016 155.68 26.2003ZM162.658 16.8747C162.658 11.3894 159.065 8.93132 155.821 8.93132C151.842 8.93132 148.801 12.4589 148.801 16.8747C148.801 21.2904 151.867 24.7742 155.889 24.7742C158.924 24.793 162.658 22.4788 162.658 16.8934V16.8747Z" fill="#E2E1DC"/>
<path d="M177.318 7.99309H183.449V9.31281H179.507C180.128 9.89005 180.624 10.5944 180.961 11.38C181.298 12.1657 181.469 13.0149 181.463 13.8724C181.463 17.3625 178.636 20.1708 174.865 20.1708C174.229 20.1815 173.595 20.0972 172.983 19.9206C172.076 20.2459 171.101 20.9526 171.101 21.9158C171.114 22.1459 171.172 22.371 171.273 22.5774C171.373 22.7839 171.513 22.9674 171.685 23.117C171.857 23.2666 172.057 23.3792 172.273 23.4479C172.488 23.5167 172.715 23.5402 172.94 23.517H178.244C181.174 23.517 183.578 25.2245 183.578 28.0391C183.578 31.1351 180.193 33.343 175.38 33.343C170.88 33.343 167.949 31.3478 167.949 28.2893C167.949 26.5067 169.415 24.9806 171.088 24.2676C170.684 24.0628 170.344 23.7484 170.104 23.3589C169.863 22.9693 169.733 22.5198 169.727 22.0597C169.727 20.9213 170.702 19.9957 171.751 19.4578C170.71 18.9592 169.83 18.1696 169.213 17.1809C168.595 16.1921 168.265 15.0448 168.262 13.8724C168.262 10.3448 171.088 7.56778 174.89 7.56778C175.718 7.55881 176.54 7.70291 177.318 7.99309V7.99309ZM169.396 28.208C169.396 30.5222 171.769 31.9607 175.362 31.9607C179.304 31.9607 182.106 30.3971 182.106 28.0829C182.106 26.0876 180.365 24.8743 178.133 24.8743H172.48C170.653 25.4684 169.396 26.5755 169.396 28.208ZM169.709 13.8662C169.648 14.9173 169.897 15.9631 170.425 16.8681C170.952 17.7731 171.734 18.4957 172.669 18.9423C173.604 19.389 174.649 19.5392 175.668 19.3734C176.687 19.2077 177.634 18.7336 178.387 18.0126C179.139 17.2916 179.662 16.3569 179.888 15.3294C180.114 14.3018 180.032 13.2288 179.653 12.2492C179.275 11.2696 178.616 10.4285 177.764 9.83475C176.911 9.24098 175.904 8.92188 174.871 8.91877C171.873 8.91877 169.709 11.1892 169.709 13.8662Z" fill="#E2E1DC"/>
<path d="M202.236 15.7177C202.24 16.1371 202.205 16.556 202.131 16.9687H187.33C187.435 21.6659 190.543 24.7994 194.872 24.7994C197.067 24.7994 199.581 24.0489 201.114 22.6603V24.3241C199.409 25.6751 196.895 26.2004 194.694 26.2004C189.249 26.2004 185.834 22.0724 185.834 16.7623C185.834 11.5647 189.513 7.54297 194.418 7.54297C198.986 7.56173 202.236 11.0893 202.236 15.7177ZM187.404 15.6802H200.776C200.74 11.5522 197.876 8.95025 194.351 8.95025C192.572 8.96301 190.864 9.6655 189.574 10.9153C188.284 12.165 187.508 13.8685 187.404 15.6802V15.6802Z" fill="#E2E1DC"/>
<path d="M221.641 31.048C226.026 31.048 229.581 27.4217 229.581 22.9483C229.581 18.475 226.026 14.8486 221.641 14.8486C217.256 14.8486 213.701 18.475 213.701 22.9483C213.701 27.4217 217.256 31.048 221.641 31.048Z" fill="#EAA04E"/>
<path d="M242.555 8.26858C241.035 5.74251 238.906 3.65607 236.371 2.20849C233.835 0.76092 230.978 0.00055224 228.073 0H218.398C221.928 1.68827 225.045 4.15831 227.521 7.23031C228.348 8.25466 229.1 9.33963 229.771 10.4765L238.68 25.5751C240.188 28.1372 242.321 30.2574 244.871 31.7293C247.42 33.2013 250.3 33.975 253.23 33.975H258L242.555 8.26858Z" fill="#EAA04E"/>
</svg>
