<svg xmlns="http://www.w3.org/2000/svg" viewBox="0 0 1600 900" role="img" aria-label="Cybersecurity awareness training background">
  <defs>
    <linearGradient id="bg" x1="0" y1="0" x2="1" y2="1">
      <stop offset="0" stop-color="#082f32"/>
      <stop offset="0.52" stop-color="#0f5659"/>
      <stop offset="1" stop-color="#1b3f48"/>
    </linearGradient>
    <radialGradient id="glow" cx="72%" cy="28%" r="55%">
      <stop offset="0" stop-color="#f5a94f" stop-opacity="0.45"/>
      <stop offset="0.42" stop-color="#f5a94f" stop-opacity="0.12"/>
      <stop offset="1" stop-color="#f5a94f" stop-opacity="0"/>
    </radialGradient>
    <filter id="soft" x="-20%" y="-20%" width="140%" height="140%">
      <feGaussianBlur stdDeviation="18"/>
    </filter>
  </defs>
  <rect width="1600" height="900" fill="url(#bg)"/>
  <rect width="1600" height="900" fill="url(#glow)"/>
  <g opacity="0.18" stroke="#ffffff" stroke-width="2" fill="none">
    <path d="M80 170h230m90 0h170m130 0h260m95 0h460"/>
    <path d="M110 730h280m70 0h220m120 0h250m80 0h360"/>
    <path d="M1180 110v170m0 80v210m0 90v120"/>
    <circle cx="1180" cy="335" r="7" fill="#f5a94f" stroke="none"/>
    <circle cx="620" cy="170" r="6" fill="#ffffff" stroke="none"/>
    <circle cx="785" cy="730" r="6" fill="#ffffff" stroke="none"/>
  </g>
  <g transform="translate(455 230)">
    <rect x="0" y="70" width="690" height="390" rx="28" fill="#09272a" opacity="0.92"/>
    <rect x="38" y="112" width="614" height="284" rx="18" fill="#f6fbfb"/>
    <rect x="70" y="145" width="550" height="42" rx="10" fill="#dbe9ea"/>
    <rect x="91" y="160" width="180" height="12" rx="6" fill="#557174"/>
    <circle cx="591" cy="166" r="10" fill="#28a745"/>
    <rect x="72" y="220" width="508" height="44" rx="12" fill="#fff8e8" stroke="#f5a94f" stroke-width="3"/>
    <rect x="94" y="238" width="300" height="10" rx="5" fill="#8a5a00" opacity="0.65"/>
    <rect x="72" y="290" width="508" height="44" rx="12" fill="#edf7f7"/>
    <rect x="94" y="308" width="250" height="10" rx="5" fill="#426a6d" opacity="0.55"/>
    <rect x="72" y="360" width="380" height="18" rx="9" fill="#dbe9ea"/>
    <path d="M345 455h-88l22-48h44z" fill="#09272a"/>
    <rect x="210" y="455" width="270" height="26" rx="13" fill="#061b1c"/>
  </g>
  <g transform="translate(1025 240)">
    <path d="M185 0l150 58v118c0 128-79 220-150 258C114 396 35 304 35 176V58z" fill="#f5a94f" opacity="0.94"/>
    <path d="M185 46l102 39v91c0 91-53 155-102 187-49-32-102-96-102-187V85z" fill="#103c3f"/>
    <rect x="126" y="174" width="118" height="110" rx="18" fill="#ffffff"/>
    <path d="M146 174v-34c0-51 78-51 78 0v34" fill="none" stroke="#ffffff" stroke-width="26" stroke-linecap="round"/>
    <circle cx="185" cy="224" r="13" fill="#103c3f"/>
    <rect x="178" y="235" width="14" height="28" rx="7" fill="#103c3f"/>
  </g>
  <g filter="url(#soft)" opacity="0.45">
    <circle cx="280" cy="675" r="120" fill="#f5a94f"/>
    <circle cx="1375" cy="165" r="90" fill="#ffffff"/>
  </g>
</svg>
